name D:\school\WTK\thesis\model\3dpredictsim\Results\batch_windlass\Pog_s1_tmt_bCst_d05_k800_WL10_ig24.mot
datacolumns 128
datarows 4
range 0.52180695 0.55311536
endheader
time	pelvis_tilt	pelvis_list	pelvis_rotation	pelvis_tx	pelvis_ty	pelvis_tz	hip_flexion_l	hip_adduction_l	hip_rotation_l	hip_flexion_r	hip_adduction_r	hip_rotation_r	knee_angle_l	knee_angle_r	ankle_angle_l	ankle_angle_r	subtalar_angle_l	subtalar_angle_r	tmt_angle_l	tmt_angle_r	mtp_angle_l	mtp_angle_r	lumbar_extension	lumbar_bending	lumbar_rotation	arm_flex_l	arm_add_l	arm_rot_l	arm_flex_r	arm_add_r	arm_rot_r	elbow_flex_l	elbow_flex_r	pro_sup_l	pro_sup_r	glut_med1_l/activation	glut_med2_l/activation	glut_med3_l/activation	glut_min1_l/activation	glut_min2_l/activation	glut_min3_l/activation	semimem_l/activation	semiten_l/activation	bifemlh_l/activation	bifemsh_l/activation	sar_l/activation	add_long_l/activation	add_brev_l/activation	add_mag1_l/activation	add_mag2_l/activation	add_mag3_l/activation	tfl_l/activation	pect_l/activation	grac_l/activation	glut_max1_l/activation	glut_max2_l/activation	glut_max3_l/activation	iliacus_l/activation	psoas_l/activation	quad_fem_l/activation	gem_l/activation	peri_l/activation	rect_fem_l/activation	vas_med_l/activation	vas_int_l/activation	vas_lat_l/activation	med_gas_l/activation	lat_gas_l/activation	soleus_l/activation	tib_post_l/activation	flex_dig_l/activation	flex_hal_l/activation	tib_ant_l/activation	per_brev_l/activation	per_long_l/activation	per_tert_l/activation	ext_dig_l/activation	ext_hal_l/activation	ercspn_l/activation	intobl_l/activation	extobl_l/activation	glut_med1_r/activation	glut_med2_r/activation	glut_med3_r/activation	glut_min1_r/activation	glut_min2_r/activation	glut_min3_r/activation	semimem_r/activation	semiten_r/activation	bifemlh_r/activation	bifemsh_r/activation	sar_r/activation	add_long_r/activation	add_brev_r/activation	add_mag1_r/activation	add_mag2_r/activation	add_mag3_r/activation	tfl_r/activation	pect_r/activation	grac_r/activation	glut_max1_r/activation	glut_max2_r/activation	glut_max3_r/activation	iliacus_r/activation	psoas_r/activation	quad_fem_r/activation	gem_r/activation	peri_r/activation	rect_fem_r/activation	vas_med_r/activation	vas_int_r/activation	vas_lat_r/activation	med_gas_r/activation	lat_gas_r/activation	soleus_r/activation	tib_post_r/activation	flex_dig_r/activation	flex_hal_r/activation	tib_ant_r/activation	per_brev_r/activation	per_long_r/activation	per_tert_r/activation	ext_dig_r/activation	ext_hal_r/activation	ercspn_r/activation	intobl_r/activation	extobl_r/activation	
          0.52180695	         -2.92745203	          1.36471835	         -5.56562259	          0.65225868	          0.85769285	          0.00181816	         31.84752455	          2.46521116	         -1.66003152	        -18.46978820	         -1.16369800	          8.15715174	        -19.66253518	         -7.67275677	         -1.85824790	         -0.98407908	         -3.59059789	          9.59089879	          0.01842437	         -0.98594909	          0.22754773	         24.88120724	         -1.03328042	          0.54863814	          1.58204096	         -7.79388411	        -13.61701869	          7.43831736	          4.44700583	        -13.45871282	         14.50472103	         18.10915309	         32.23136142	         86.51662706	         86.51662706	          0.05000026	          0.05000026	          0.05869667	          0.05000011	          0.05000013	          0.05000043	          0.05000096	          0.05869697	          0.06185682	          0.05007984	          0.05000015	          0.09564408	          0.14863416	          0.16771300	          0.14969487	          0.11832042	          0.05000230	          0.05000155	          0.06890603	          0.05869677	          0.10673890	          0.10731814	          0.06170528	          0.06252253	          0.18683731	          0.05000008	          0.05000008	          0.05000017	          0.09712107	          0.10355124	          0.08413555	          0.07615264	          0.06492058	          0.05000000	          0.05000002	          0.05869680	          0.05869675	          0.35711080	          0.31730544	          0.17959903	          0.17032809	          0.57506827	          0.11883662	          0.05869678	          0.13149233	          0.12931659	          0.30805573	          0.09496144	          0.05962766	          0.33979407	          0.21201755	          0.09797618	          0.05000048	          0.05000007	          0.05000006	          0.07885314	          0.10116013	          0.05000033	          0.05000006	          0.05000009	          0.05000027	          0.05000031	          0.28824403	          0.05000029	          0.05000020	          0.05000185	          0.05000106	          0.05000053	          0.33972340	          0.54474436	          0.05000012	          0.05000072	          0.05000038	          0.19131334	          0.05000179	          0.08539739	          0.08030119	          0.32587018	          0.41993742	          0.27976249	          0.22981337	          0.21639986	          0.30863695	          0.05000000	          0.06890646	          0.15571557	          0.05000002	          0.05000000	          0.05000002	          0.05000000	          0.05000001	          0.05000000	
          0.53224309	         -2.91986240	          1.47746230	         -5.86634510	          0.66792161	          0.85659294	          0.00165058	         31.32857216	          2.85608546	         -1.42427526	        -18.30096709	         -1.48632312	          7.91386891	        -19.30052793	         -9.55059135	         -2.30976244	         -1.71546298	         -4.31941584	         10.62022329	          0.01759856	         -1.40042839	          0.33077697	         25.92956939	         -0.84829324	          0.31331605	          1.64337113	         -8.72756724	        -13.61667324	          7.23627876	          4.27864612	        -13.47687593	         14.88174736	         17.96917977	         33.13742694	         86.51662706	         86.51662706	          0.05000722	          0.05000085	          0.05000002	          0.05869679	          0.05869677	          0.05000038	          0.05000012	          0.05000019	          0.05869677	          0.05000002	          0.05000009	          0.11147505	          0.22470318	          0.14289095	          0.16617763	          0.12684313	          0.05000003	          0.08088503	          0.05869668	          0.05000006	          0.13641234	          0.14237788	          0.05535841	          0.05325895	          0.22165558	          0.14147573	          0.09243711	          0.05741112	          0.17706955	          0.17517265	          0.14932390	          0.06486953	          0.05530170	          0.05517512	          0.05000000	          0.05000004	          0.05000003	          0.48193894	          0.27029204	          0.15298883	          0.46506911	          0.65315350	          0.25472448	          0.05000001	          0.11200983	          0.11015646	          0.28902245	          0.08089152	          0.05079296	          0.28944867	          0.18060408	          0.08345959	          0.05000032	          0.05000004	          0.05000003	          0.06716990	          0.08617183	          0.10520367	          0.11653591	          0.05000053	          0.05000056	          0.05000018	          0.24553651	          0.09606016	          0.05000019	          0.05000034	          0.05000024	          0.05000021	          0.28938847	          0.50470563	          0.05000002	          0.05000009	          0.05000007	          0.16296749	          0.15161298	          0.07277501	          0.06882694	          0.27758777	          0.35771758	          0.23831160	          0.19576320	          0.18433714	          0.26290793	          0.05000000	          0.05869699	          0.13264407	          0.05000002	          0.05000000	          0.05000001	          0.05000000	          0.05243577	          0.05000002	
          0.54267923	         -2.90763338	          1.59401810	         -6.14276557	          0.68387559	          0.85542173	          0.00148010	         30.68152200	          3.24512623	         -1.12187288	        -18.03631525	         -1.80184059	          7.66009134	        -19.54184793	        -11.60671432	         -2.71836063	         -2.55531674	         -5.08797139	         11.60386170	         -0.02037784	         -1.80957203	          0.47424924	         26.77844259	         -0.64106904	          0.06553002	          1.69766362	         -9.67961510	        -13.61813314	          7.06988335	          4.03975702	        -13.50467097	         15.21573690	         17.84938699	         34.02531645	         86.51662706	         86.51662706	          0.05000000	          0.05000002	          0.12038511	          0.05000002	          0.05000002	          0.05000004	          0.05000000	          0.05000001	          0.05000001	          0.05000001	          0.05000873	          0.09495843	          0.19141017	          0.27006097	          0.20727186	          0.15210282	          0.05000018	          0.06890164	          0.05000025	          0.08543666	          0.14039551	          0.12128258	          0.05000040	          0.05476667	          0.28544286	          0.12051406	          0.07874122	          0.05869683	          0.26898993	          0.25837211	          0.22294472	          0.06035659	          0.05000010	          0.05000000	          0.05365700	          0.05869695	          0.05000249	          0.48320290	          0.23024435	          0.13032134	          0.39616240	          0.55637940	          0.21698336	          0.05000000	          0.09541395	          0.09383518	          0.24619959	          0.06890627	          0.05000014	          0.24656268	          0.15384497	          0.07109384	          0.05000072	          0.05000016	          0.05000035	          0.05721771	          0.07340428	          0.19716876	          0.27159778	          0.05869760	          0.05869669	          0.05869694	          0.20915673	          0.09527895	          0.05779022	          0.05000139	          0.05000096	          0.05000141	          0.24651137	          0.45967897	          0.05869672	          0.05010894	          0.05000004	          0.13882149	          0.12914945	          0.15363030	          0.15190000	          0.23645910	          0.30471652	          0.20300227	          0.16675804	          0.15702494	          0.22395431	          0.05547225	          0.05000019	          0.11299094	          0.05000001	          0.06819300	          0.05000008	          0.05049725	          0.05869679	          0.06890619	
          0.55311536	         -2.89275288	          1.71402195	         -6.39024044	          0.70001502	          0.85421440	          0.00131754	         29.82617323	          3.60606541	         -0.78670743	        -17.68432521	         -2.10569477	          7.39724137	        -19.96659590	        -13.80312446	         -2.70813350	         -3.49749375	         -5.89837132	         12.50570283	         -0.30019432	         -2.21215647	          0.48929912	         27.29103869	         -0.42056286	         -0.19227321	          1.74199024	        -10.62013141	        -13.62448560	          6.96917344	          3.74472968	        -13.53820561	         15.50605057	         17.72253347	         34.88954384	         86.51662706	         86.51662706	          0.27202880	          0.30511093	          0.39513079	          0.25106687	          0.19078983	          0.24805941	          0.07982984	          0.09657216	          0.08131872	          0.06890629	          0.05000019	          0.08088897	          0.16304998	          0.23004755	          0.17656157	          0.13787311	          0.05000006	          0.05869482	          0.09906766	          0.22437746	          0.19611941	          0.10331294	          0.05000036	          0.05000009	          0.24315037	          0.10265819	          0.18737382	          0.05000005	          0.22913574	          0.25310170	          0.21648494	          0.05141389	          0.05000007	          0.05393262	          0.06116574	          0.05000021	          0.05000010	          0.56205382	          0.19613031	          0.11101234	          0.36943110	          0.60168753	          0.29984848	          0.05000005	          0.09017370	          0.07993213	          0.31652873	          0.05869681	          0.05000000	          0.29649305	          0.13105061	          0.06056026	          0.05000054	          0.05000002	          0.05000001	          0.05000003	          0.06252843	          0.17466454	          0.23135674	          0.05000075	          0.05000022	          0.05000023	          0.19553177	          0.08116226	          0.05000005	          0.05000014	          0.05000009	          0.05000006	          0.20998716	          0.43540110	          0.05000000	          0.05000003	          0.05000001	          0.11825307	          0.11001412	          0.13086777	          0.12939383	          0.20142425	          0.25956833	          0.17292453	          0.14205041	          0.13375943	          0.19077223	          0.12388936	          0.15081987	          0.14059401	          0.24515333	          0.18148689	          0.06520298	          0.08051376	          0.05000000	          0.05869674	
